<?xml version="1.0" encoding="UTF-8" standalone="no"?>
<svg
   height="24"
   preserveAspectRatio="xMinYMid meet"
   viewBox="0 0 99.132004 24"
   width="99.132004"
   version="1.1"
   id="svg4"
   inkscape:version="1.1.1 (3bf5ae0d25, 2021-09-20)"
   xmlns:inkscape="http://www.inkscape.org/namespaces/inkscape"
   xmlns:sodipodi="http://sodipodi.sourceforge.net/DTD/sodipodi-0.dtd"
   xmlns="http://www.w3.org/2000/svg"
   xmlns:svg="http://www.w3.org/2000/svg">
  <defs
     id="defs8" />
  <path
     d="m 4.625,0.044 h 0.188 c 1.151,0 2.501,0.5 3.475,1.619 0.412,0.412 1.217,2.34 1.29,2.515 l 0.004,0.012 4.957,13.214 c 0.288,0.743 0.886,1.175 1.494,1.22 a 1.616,1.616 0 0 0 1.513,-0.97 l 0.058,-0.15 1.56,-4.157 2.634,6.906 c -1.295,2.328 -2.534,2.927 -3.983,3.459 A 7.026,7.026 0 0 1 16.43,23.977 L 16.077,24 H 15.591 C 14.517,23.967 13.455,23.679 12.603,23.18 12.136,22.861 10.928,22.064 10.069,20.144 L 9.959,19.887 4.736,5.332 V 18.59 l 0.077,-0.221 1.915,-5.388 2.478,7.006 c -0.376,1.619 -1.505,2.971 -2.855,3.614 -0.436,0.2 -0.783,0.318 -1.207,0.368 l -0.22,0.02 H 4.79 A 5.028,5.028 0 0 1 1.77,23.179 C 0.489,22.247 0.079,21.121 0.007,19.229 L 0,18.968 V 4.578 C 0.155,2.206 1.66,0.908 3.01,0.321 3.58,0.124 3.862,0.059 4.407,0.046 L 4.625,0.044 H 4.813 Z M 89.341,0 c 4.467,0 8.127,2.36 9.49,6.108 l 0.092,0.264 0.143,0.406 -0.385,0.22 C 98.538,7.086 97.714,7.47 96.143,8.206 95.727,8.414 95.383,8.568 95.271,8.621 L 95.241,8.635 94.648,8.932 94.484,8.294 C 93.967,6.46 92.363,4.471 89.396,4.471 c -3.704,0 -5.825,2.692 -5.825,7.383 0,3.67 1.506,7.58 5.715,7.58 2.291,0 4.163,-1.25 5.051,-3.353 l 0.092,-0.228 0.208,-0.539 4.495,2.022 -0.22,0.494 c -1.681,3.834 -5.374,6.163 -9.692,6.163 -0.143,0 -0.286,0 -0.429,-0.01 C 82.396,23.796 78.429,19.203 78.429,12.019 78.429,3.351 83.901,0.132 89.011,0.011 89.121,0 89.231,0 89.341,0 Z m -59.09,0.787 c 1.303,0.976 1.693,2.052 1.744,3.997 L 32,5.054 V 19.4 c -0.155,2.416 -1.715,3.713 -3.065,4.312 -0.586,0.221 -0.863,0.277 -1.56,0.277 -1.184,0 -2.689,-0.444 -3.663,-1.674 -0.401,-0.413 -1.206,-2.35 -1.278,-2.526 L 22.429,19.776 17.472,6.629 a 1.989,1.989 0 0 0 -1.605,-1.22 c -0.565,-0.01 -1.13,0.295 -1.438,0.96 l -0.067,0.16 -1.504,4.157 -2.634,-6.961 c 1.284,-2.328 2.523,-2.86 3.972,-3.404 0.415,-0.138 0.96,-0.223 1.451,-0.266 l 0.287,-0.022 v -0.01 h 0.11 L 16.1,0.017 16.155,0.011 v 0.011 c 1.173,-0.011 2.346,0.255 3.275,0.843 0.467,0.308 1.665,1.064 2.524,2.98 l 0.11,0.257 5.167,14.6 V 5.386 L 27.109,5.741 25.295,10.996 22.827,3.979 C 23.148,2.416 24.332,1.063 25.671,0.42 25.998,0.26 26.397,0.15 26.77,0.085 l 0.273,-0.042 v -0.01 h 0.1 c 0.01,-0.012 0.022,-0.012 0.022,-0.012 1.084,-0.089 2.18,0.21 3.087,0.765 z M 50.012,0 58.474,23.763 H 52.979 L 51.11,18.28 h -8.044 l -1.868,5.482 H 35.736 L 44.186,0 h 5.825 z m 18.571,0 c 3.583,0 7.847,1.066 7.847,6.141 0,2.153 -0.902,4.01 -2.374,5.032 1.901,1 3,2.977 2.978,5.504 0,4.407 -2.928,6.985 -8.058,7.083 l -0.305,0.003 H 59 V 0 h 9.582 z M 68.397,13.71 H 64.22 v 5.504 h 4.505 c 2.055,0 3.077,-0.89 3.132,-2.724 0.022,-0.802 -0.198,-1.45 -0.637,-1.9 -0.572,-0.572 -1.539,-0.88 -2.824,-0.88 z M 47.1,6.976 44.605,13.743 h 4.934 L 47.099,6.976 Z M 68.528,4.46 H 64.22 v 4.68 h 4.154 c 1.9,0 2.857,-0.835 2.857,-2.504 0,-1.011 -0.308,-2.176 -2.704,-2.176 z"
     fill="currentColor"
     fill-rule="nonzero"
     id="path2" />
</svg>
